# xmcd
#
# Track frame offsets:
#	150
#	26934
#	52875
#	111405
#	171575
#	194900
#	228374
#	257071
#
# Disc length: 4224 seconds
#
# Revision: 0
# Processed by: cddbd v1.5.2PL0 Copyright (c) Steve Scherf et al.
# Submitted via: EasyCDDAExtractor 16.0.6.1
#
DISCID=77107e08
DTITLE=Συλλογικός δίσκος - Μνημεία εκκλησ. μουσικής 5-2
DYEAR=1999
DGENRE=Βυζ. Εκκλησιαστική
TTITLE0=Φιρφιρής Διονύσιος π. - Άστρον ήδη ανατέλτακεν [ήχ. α', Μπαλασίου ιερέ
TTITLE0=ως]
TTITLE1=Φιρφιρής Διονύσιος π. - Εκύκλωσαν αι του βίου με ζάλαι [πλ. δ', Αθανασ
TTITLE1=ίου πατριάρχου]
TTITLE2=Φιρφιρής Διονύσιος π. - Συνέχομαι πάντοθεν δεινοίς [ήχ. α', Πέτρου Μπε
TTITLE2=ρεκέτη]
TTITLE3=Φιρφιρής Διονύσιος π. - Ποίαν σοι επάξιον ωδήν [ήχ. α', Σωτηρίου Βλαχο
TTITLE3=πούλου]
TTITLE4=Βαλληνδράς Νικόδημος μητρ. - Εν Σιναίω τω όρει [ήχ. γ', ΔαμιανούΒατοπε
TTITLE4=δινού]
TTITLE5=Βαλληνδράς Νικόδημος μητρ. - Ίδε ην προέφης [ήχ. α', Πέτρου Μπερεκέτη]
TTITLE6=Βαλληνδράς Νικόδημος μητρ. - Παντάνασσα πανύμνητε [ήχ. δ', Άγια Μελετί
TTITLE6=ου Σιναΐτου παλαιού] 
TTITLE7=Τσαμκιράνης Ματθαίος - Πώς σου την χάριν υμνήσαιμι [ήχ. πλ. δ', Πέτρου
TTITLE7=Μπερεκέτη]
EXTD=
EXTT0=
EXTT1=
EXTT2=
EXTT3=
EXTT4=
EXTT5=
EXTT6=
EXTT7=
PLAYORDER=
